<svg width="20" height="20" viewBox="0 0 20 20" fill="none" xmlns="http://www.w3.org/2000/svg">
<path fill-rule="evenodd" clip-rule="evenodd" d="M5.36955 8.24628C4.07706 9.25531 3.10581 10.4624 2.55564 11.2339C2.41954 11.4247 2.35476 11.5179 2.31615 11.5921C2.2916 11.6393 2.29167 11.6522 2.29174 11.6648C2.29174 11.6655 2.29175 11.6662 2.29175 11.6668C2.29175 11.6675 2.29174 11.6682 2.29174 11.6688C2.29167 11.6815 2.2916 11.6944 2.31615 11.7416C2.35476 11.8157 2.41954 11.9089 2.55564 12.0998C3.10581 12.8713 4.07706 14.0783 5.36955 15.0874C6.66331 16.0974 8.23453 16.8752 10.0001 16.8752C11.7656 16.8752 13.3369 16.0974 14.6306 15.0874C15.9231 14.0783 16.8944 12.8713 17.4445 12.0998C17.5806 11.9089 17.6454 11.8157 17.684 11.7416C17.7086 11.6944 17.7085 11.6815 17.7084 11.6688C17.7084 11.6682 17.7084 11.6675 17.7084 11.6668C17.7084 11.6662 17.7084 11.6655 17.7084 11.6648C17.7085 11.6522 17.7086 11.6393 17.684 11.5921C17.6454 11.5179 17.5806 11.4247 17.4445 11.2339C16.8944 10.4624 15.9231 9.25531 14.6306 8.24628C13.3369 7.23626 11.7656 6.4585 10.0001 6.4585C8.23453 6.4585 6.66331 7.23626 5.36955 8.24628ZM4.60034 7.26098C6.02171 6.15134 7.85795 5.2085 10.0001 5.2085C12.1422 5.2085 13.9785 6.15134 15.3998 7.26098C16.8225 8.37163 17.874 9.68328 18.4622 10.5081C18.4768 10.5285 18.4916 10.5491 18.5066 10.5699C18.7176 10.8633 18.9584 11.1983 18.9584 11.6668C18.9584 12.1353 18.7176 12.4703 18.5066 12.7637C18.4916 12.7845 18.4768 12.8051 18.4622 12.8256C17.874 13.6504 16.8225 14.962 15.3998 16.0727C13.9785 17.1823 12.1422 18.1252 10.0001 18.1252C7.85795 18.1252 6.02171 17.1823 4.60034 16.0727C3.17769 14.962 2.12614 13.6504 1.53792 12.8256C1.52336 12.8051 1.50854 12.7845 1.49357 12.7637C1.28261 12.4703 1.04175 12.1353 1.04175 11.6668C1.04175 11.1983 1.28261 10.8633 1.49357 10.5699C1.50854 10.5491 1.52336 10.5285 1.53792 10.5081C2.12613 9.68328 3.17769 8.37163 4.60034 7.26098Z" fill="white"/>
<path d="M17.868 7.08382L17.8671 7.08282L17.8611 7.07618C17.8553 7.06984 17.846 7.05972 17.8332 7.04606C17.8078 7.01874 17.7686 6.97731 17.7165 6.92379C17.6121 6.8167 17.4561 6.66147 17.2538 6.47413C16.8487 6.09888 16.2617 5.5979 15.5374 5.09758C14.0769 4.08872 12.1194 3.125 10.0001 3.125C7.88079 3.125 5.92328 4.08872 4.46274 5.09758C3.73843 5.5979 3.15145 6.09888 2.74636 6.47413C2.54412 6.66147 2.38804 6.8167 2.28371 6.92379C2.23156 6.97731 2.1924 7.01874 2.16693 7.04606C2.1542 7.05972 2.1449 7.06984 2.1391 7.07618L2.13307 7.08282L2.13237 7.08359C1.90206 7.34038 1.50685 7.36243 1.24983 7.13228C0.992676 6.90202 0.970877 6.50689 1.20114 6.24974L1.20283 6.24786L1.20589 6.24447L1.21609 6.23324C1.2247 6.22382 1.2369 6.21055 1.25262 6.19369C1.28405 6.15998 1.32955 6.11188 1.38841 6.05147C1.50609 5.93069 1.67745 5.7604 1.8969 5.55712C2.33518 5.15112 2.9686 4.61044 3.75232 4.06909C5.30786 2.99461 7.51701 1.875 10.0001 1.875C12.4832 1.875 14.6923 2.99461 16.2479 4.06909C17.0316 4.61044 17.665 5.15112 18.1033 5.55712C18.3227 5.7604 18.4941 5.93069 18.6118 6.05147C18.6706 6.11188 18.7161 6.15998 18.7476 6.19369C18.7633 6.21055 18.7755 6.22382 18.7841 6.23324L18.7943 6.24447L18.7973 6.24786L18.7984 6.24899C18.7984 6.24899 18.799 6.24974 18.3334 6.66667L18.799 6.24974C19.0293 6.50689 19.0075 6.90202 18.7503 7.13228C18.4933 7.36247 18.0983 7.34076 17.868 7.08382Z" fill="#DBA102"/>
<path fill-rule="evenodd" clip-rule="evenodd" d="M10.0001 14.7917C8.2742 14.7917 6.87509 13.3926 6.87509 11.6667C6.87509 9.94078 8.2742 8.54167 10.0001 8.54167C11.726 8.54167 13.1251 9.94078 13.1251 11.6667C13.1251 13.3926 11.726 14.7917 10.0001 14.7917ZM8.12509 11.6667C8.12509 12.7022 8.96456 13.5417 10.0001 13.5417C11.0356 13.5417 11.8751 12.7022 11.8751 11.6667C11.8751 10.6311 11.0356 9.79167 10.0001 9.79167C8.96456 9.79167 8.12509 10.6311 8.12509 11.6667Z" fill="#DBA102"/>
</svg>
