  <svg width="20" height="20" viewBox="0 0 20 20" fill="none" xmlns="http://www.w3.org/2000/svg">
                            <path fill-rule="evenodd" clip-rule="evenodd"
                                d="M4.18213 0.250002C4.19946 0.250002 4.21686 0.250003 4.23431 0.250003L15.8178 0.250002C16.5884 0.249966 17.2426 0.249936 17.7587 0.320304C18.3049 0.394785 18.8273 0.562914 19.2272 1.0031C19.6306 1.44714 19.741 1.98226 19.7494 2.52927C19.7573 3.04013 19.6757 3.67472 19.5805 4.41461L19.5735 4.4685C19.5399 4.73033 19.4893 4.98356 19.384 5.23711C19.2771 5.49453 19.1298 5.71377 18.9464 5.93165C17.9667 7.09554 16.1454 9.1989 13.5814 11.1144C13.54 11.1454 13.4876 11.2188 13.4776 11.329C13.2285 14.0819 13.0094 15.5385 12.8513 16.3823C12.6803 17.2948 11.9843 17.9264 11.3841 18.3612C11.0701 18.5888 10.7367 18.7937 10.4398 18.9744C10.416 18.9889 10.3925 19.0032 10.3693 19.0173C10.0919 19.186 9.8561 19.3294 9.659 19.4687C9.11849 19.8509 8.49491 19.8241 8.01827 19.5464C7.56847 19.2844 7.25196 18.8065 7.18796 18.266C7.0475 17.0796 6.79286 14.7569 6.51176 11.3226C6.50274 11.2124 6.48553 11.1805 6.4841 11.1778C6.48311 11.1759 6.48058 11.1713 6.47219 11.1621C6.4628 11.1517 6.44403 11.1335 6.40835 11.1068C3.84952 9.19368 2.03182 7.094 1.05351 5.93162C0.870802 5.71453 0.71921 5.50051 0.611123 5.24022C0.505311 4.98541 0.460192 4.73089 0.42644 4.46849C0.424121 4.45047 0.421809 4.43251 0.419505 4.4146C0.324289 3.67472 0.242623 3.04013 0.25053 2.52927C0.258998 1.98226 0.369419 1.44714 0.772804 1.0031C1.17269 0.562914 1.69502 0.394785 2.2413 0.320304C2.75741 0.249936 3.41157 0.249966 4.18213 0.250002ZM2.44394 1.80655C2.05984 1.85892 1.94414 1.94449 1.88307 2.01171C1.82551 2.07507 1.75601 2.18665 1.75035 2.55249C1.74432 2.94212 1.81012 3.46812 1.91418 4.27712C1.9431 4.50193 1.96843 4.59754 1.99643 4.66496C2.02215 4.72691 2.06773 4.80722 2.20114 4.96572C3.15942 6.10431 4.88846 8.09756 7.30654 9.90542C7.50081 10.0507 7.67905 10.2305 7.808 10.4726C7.93505 10.7112 7.98704 10.9594 8.00676 11.2002C8.28632 14.6158 8.53914 16.9204 8.67756 18.0896C8.68178 18.1253 8.69476 18.1604 8.71474 18.1911C8.73518 18.2224 8.75789 18.2413 8.77333 18.2503C8.7753 18.2515 8.77703 18.2524 8.77851 18.2531C8.78207 18.2512 8.78688 18.2483 8.79298 18.244C9.03509 18.0728 9.3161 17.902 9.58133 17.7409C9.60774 17.7248 9.63398 17.7089 9.66002 17.693C9.95883 17.5112 10.2446 17.3345 10.504 17.1466C11.0508 16.7503 11.319 16.4151 11.3769 16.1061C11.5234 15.3243 11.7372 13.9181 11.9837 11.1938C12.0289 10.6947 12.274 10.2188 12.6837 9.91271C15.1067 8.10253 16.8392 6.10571 17.7988 4.9657C17.9152 4.82745 17.9669 4.73831 17.9988 4.6616C18.0323 4.58102 18.0604 4.4744 18.0858 4.27712C18.1899 3.46812 18.2557 2.94212 18.2496 2.55249C18.244 2.18665 18.1745 2.07507 18.1169 2.01171C18.0558 1.94449 17.9401 1.85892 17.556 1.80655C17.1534 1.75165 16.6027 1.75 15.7657 1.75H4.23431C3.39726 1.75 2.8466 1.75165 2.44394 1.80655ZM8.77065 18.2566C8.77069 18.2566 8.77118 18.2564 8.77211 18.2562L8.77065 18.2566Z"
                                fill="#161616" />
                        </svg>