<svg width="22" height="24" viewBox="0 0 22 24" fill="none" xmlns="http://www.w3.org/2000/svg">
            <path fill-rule="evenodd" clip-rule="evenodd" d="M14.6682 12.7115C14.5663 12.4321 14.3274 12.25 14.0625 12.25C13.7975 12.25 13.5586 12.4321 13.4567 12.7115L11.2692 18.7115C11.1298 19.0939 11.288 19.533 11.6226 19.6923C11.9571 19.8516 12.3413 19.6708 12.4807 19.2885L13.0416 17.75H15.0833L15.6442 19.2885C15.7836 19.6708 16.1678 19.8516 16.5024 19.6923C16.8369 19.533 16.9951 19.0939 16.8557 18.7115L14.6682 12.7115ZM14.0625 14.95L14.5364 16.25H13.5885L14.0625 14.95Z" fill="#161616"/>
            <path d="M7.63125 4.25C7.99369 4.25 8.2875 4.58579 8.2875 5V5.21552H11C11.3624 5.21552 11.6562 5.5513 11.6562 5.96552C11.6562 6.37973 11.3624 6.71552 11 6.71552H9.94762C9.62399 7.74664 9.12281 8.71119 8.56221 9.57728L9.35108 10.5145C9.60234 10.8131 9.59428 11.2879 9.33307 11.575C9.07186 11.8622 8.65643 11.8529 8.40517 11.5544L7.7286 10.7506C7.20237 11.4317 6.66046 12.0391 6.17232 12.5521C5.90553 12.8324 5.49038 12.8126 5.24506 12.5077C4.99974 12.2028 5.01714 11.7283 5.28393 11.4479C5.78343 10.923 6.32958 10.3072 6.84699 9.62414C6.73742 9.4632 6.62753 9.29589 6.52474 9.13299C6.31852 8.80615 6.10738 8.44486 5.99956 8.18047C5.84645 7.80503 5.98864 7.35883 6.31715 7.18384C6.64566 7.00886 7.03609 7.17137 7.18919 7.5468C7.23887 7.66862 7.38211 7.92724 7.58932 8.25565C7.62036 8.30483 7.65207 8.35441 7.68421 8.40399C8.01819 7.85898 8.30982 7.29315 8.5342 6.71552H4.875C4.51256 6.71552 4.21875 6.37973 4.21875 5.96552C4.21875 5.5513 4.51256 5.21552 4.875 5.21552H6.975V5C6.975 4.58579 7.26881 4.25 7.63125 4.25Z" fill="#161616"/>
            <path fill-rule="evenodd" clip-rule="evenodd" d="M8.7697 1.25H8.8553C10.2573 1.24999 11.368 1.24998 12.2467 1.36868C13.1488 1.49055 13.8914 1.74638 14.5117 2.3282C14.7221 2.52558 14.9151 2.74612 15.0878 2.98663C15.7051 3.8462 15.9087 4.92342 15.9838 6.30423C17.1917 6.39008 18.1344 6.62257 18.8867 7.3282C19.0971 7.52558 19.2901 7.74612 19.4628 7.98663C19.9719 8.69558 20.1958 9.54428 20.3024 10.5752C20.4063 11.5795 20.4063 12.8488 20.4062 14.451V14.5489C20.4063 16.1511 20.4063 17.4205 20.3024 18.4248C20.1958 19.4557 19.9719 20.3044 19.4628 21.0134C19.2901 21.2539 19.0971 21.4744 18.8867 21.6718C18.2664 22.2536 17.5238 22.5095 16.6217 22.6313C15.743 22.75 14.6323 22.75 13.2304 22.75H13.1447C11.7428 22.75 10.632 22.75 9.75334 22.6313C8.85124 22.5095 8.10863 22.2536 7.4883 21.6718C7.27786 21.4744 7.08489 21.2539 6.91218 21.0134C6.29493 20.1538 6.09131 19.0766 6.01619 17.6958C4.80799 17.6099 3.86542 17.3772 3.1133 16.6718C2.90286 16.4744 2.70989 16.2539 2.53718 16.0134C2.02809 15.3044 1.80423 14.4557 1.6976 13.4248C1.59373 12.4205 1.59374 11.1512 1.59375 9.54891V9.45109C1.59374 7.84883 1.59373 6.57947 1.6976 5.57525C1.80423 4.54428 2.02809 3.69558 2.53718 2.98663C2.70989 2.74612 2.90286 2.52558 3.1133 2.3282C3.73363 1.74638 4.47624 1.49055 5.37834 1.36868C6.25704 1.24998 7.36772 1.24999 8.7697 1.25ZM7.31125 17.2769C7.37093 18.7782 7.54343 19.528 7.92675 20.0618C8.04492 20.2263 8.17695 20.3772 8.32094 20.5123C8.66867 20.8384 9.12923 21.0366 9.90741 21.1417C10.7001 21.2488 11.7332 21.25 13.1875 21.25C14.6418 21.25 15.6749 21.2488 16.4676 21.1417C17.2458 21.0366 17.7063 20.8384 18.0541 20.5123C18.198 20.3772 18.3301 20.2263 18.4482 20.0618C18.7336 19.6644 18.907 19.138 18.999 18.2487C19.0927 17.3428 19.0938 16.1621 19.0938 14.5C19.0938 12.8379 19.0927 11.6572 18.999 10.7513C18.907 9.86197 18.7336 9.33563 18.4482 8.93822C18.3301 8.77366 18.198 8.62277 18.0541 8.48772C17.5894 8.05189 16.9373 7.85431 15.6357 7.78524L7.31125 17.2769ZM14.6896 6.74509C14.6307 5.22909 14.4584 4.47463 14.0732 3.93822C13.9551 3.77366 13.823 3.62277 13.6791 3.48772C13.3313 3.16158 12.8708 2.96344 12.0926 2.85831C11.2999 2.75123 10.2668 2.75 8.8125 2.75C7.35815 2.75 6.32509 2.75123 5.53241 2.85831C4.75423 2.96344 4.29367 3.16158 3.94594 3.48772C3.80195 3.62277 3.66992 3.77366 3.55175 3.93822C3.26638 4.33563 3.09301 4.86197 3.00102 5.75133C2.90732 6.65724 2.90625 7.83789 2.90625 9.5C2.90625 11.1621 2.90732 12.3428 3.00102 13.2487C3.09301 14.138 3.26638 14.6644 3.55175 15.0618C3.66992 15.2263 3.80195 15.3772 3.94594 15.5123C4.41313 15.9505 5.06936 16.1476 6.38361 16.2158L14.6896 6.74509Z" fill="#161616"/>
            </svg>