 <svg width="24" height="24" viewBox="0 0 24 24" fill="none" xmlns="http://www.w3.org/2000/svg">
            <path fill-rule="evenodd" clip-rule="evenodd" d="M12 2.75C8.23467 2.75 5.22509 5.69657 5.22509 9.27941V9.27948C5.225 10.3321 5.17154 11.5212 4.40013 12.6239L4.39767 12.6274L4.39766 12.6274C4.29469 12.7728 4.18351 12.9203 4.07922 13.0586C4.05415 13.0918 4.02948 13.1245 4.00541 13.1565C3.87684 13.3277 3.75904 13.4879 3.65386 13.6478C3.44107 13.9714 3.31211 14.2476 3.27079 14.5105C3.13773 15.3571 3.69098 16.0479 4.71181 16.4584C8.99502 18.1805 15.0049 18.1805 19.2881 16.4584C20.3089 16.0479 20.8622 15.3571 20.7291 14.5105C20.6878 14.2476 20.5589 13.9714 20.3461 13.6478C20.2409 13.4879 20.1231 13.3277 19.9945 13.1565C19.9705 13.1245 19.9458 13.0918 19.9207 13.0586C19.8164 12.9203 19.7052 12.7728 19.6023 12.6274L19.5998 12.6239C18.8284 11.5212 18.7749 10.3321 18.7748 9.27948V9.27941C18.7748 5.69657 15.7653 2.75 12 2.75ZM3.72509 9.27935C3.72513 4.8216 7.45354 1.25 12 1.25C16.5464 1.25 20.2748 4.82164 20.2748 9.27941C20.2749 10.3066 20.346 11.0727 20.8278 11.7624C20.916 11.887 21.0095 12.011 21.1119 12.1468C21.1386 12.1822 21.1659 12.2184 21.1938 12.2556C21.3251 12.4304 21.4668 12.6221 21.5994 12.8237C21.8621 13.2232 22.1216 13.709 22.2109 14.2776C22.5032 16.137 21.155 17.3245 19.8477 17.8501C15.2054 19.7166 8.79453 19.7166 4.15223 17.8501C2.84494 17.3245 1.49674 16.137 1.78898 14.2776C1.87836 13.709 2.13785 13.2232 2.40054 12.8237C2.5331 12.6221 2.67479 12.4304 2.80613 12.2556C2.83408 12.2184 2.86136 12.1822 2.88804 12.1468C2.99043 12.011 3.08392 11.887 3.17222 11.7624C3.65394 11.0726 3.725 10.3066 3.72509 9.27941" fill="#1F2A37"/>
            <path fill-rule="evenodd" clip-rule="evenodd" d="M8.40885 20.5384C8.66383 20.2119 9.13516 20.154 9.46159 20.409C10.1228 20.9255 11.0108 21.25 11.9999 21.25C12.989 21.25 13.877 20.9255 14.5382 20.409C14.8647 20.154 15.336 20.2119 15.591 20.5384C15.8459 20.8648 15.788 21.3361 15.4616 21.5911C14.5306 22.3183 13.3159 22.75 11.9999 22.75C10.684 22.75 9.46926 22.3183 8.53823 21.5911C8.2118 21.3361 8.15387 20.8648 8.40885 20.5384Z" fill="#DBA102"/>
            </svg>