<svg width="20" height="20" viewBox="0 0 20 20" fill="none" xmlns="http://www.w3.org/2000/svg">
                            <path
                                d="M9.9991 18.125H10C13.7033 18.125 15.5617 18.125 16.8433 16.8433C18.055 15.63 18.1175 13.8291 18.1233 10.7508C18.1233 10.4058 17.8442 10.125 17.4992 10.125H17.4975C17.1525 10.125 16.8725 10.4042 16.8725 10.7492C16.8667 13.7417 16.7792 15.1391 15.9583 15.96C15.0425 16.875 13.3575 16.875 9.99919 16.875C6.64085 16.875 4.955 16.875 4.04 15.96C3.125 15.0441 3.125 13.3583 3.125 10C3.125 6.64168 3.12502 4.95587 4.04085 4.04004C4.86085 3.21921 6.25831 3.13083 9.25081 3.125C9.59665 3.125 9.875 2.84419 9.875 2.49919C9.87417 2.15419 9.595 1.875 9.25 1.875H9.24833C6.16916 1.88083 4.36832 1.94332 3.15666 3.15666C1.875 4.43748 1.875 6.29664 1.875 9.99991C1.875 13.7032 1.875 15.5617 3.15666 16.8433C4.43748 18.125 6.29666 18.125 9.9991 18.125Z"
                                fill="#DBA102" />
                            <path
                                d="M8.76675 11.3251C8.88925 11.4459 9.04841 11.5067 9.20758 11.5067C9.36842 11.5067 9.5284 11.4443 9.6509 11.3218L16.8001 4.13092C16.8492 4.63592 16.8876 5.43342 16.8701 6.67926C16.8651 7.02509 17.1409 7.30837 17.4859 7.31337C17.8326 7.32171 18.1151 7.04257 18.1201 6.69757C18.1717 3.07325 17.7821 2.68207 17.5728 2.472C17.3628 2.26197 16.9718 1.87093 13.3501 1.92259C13.0051 1.92759 12.7292 2.2117 12.7342 2.5567C12.7392 2.89837 13.0184 3.17259 13.3592 3.17259H13.3684C14.6192 3.15509 15.4175 3.19339 15.9209 3.24339L8.76422 10.4409C8.52089 10.6859 8.52175 11.0818 8.76675 11.3251Z"
                                fill="#DBA102" />
                        </svg>