<svg width="11" height="15" viewBox="0 0 11 15" fill="none"
                                xmlns="http://www.w3.org/2000/svg">
                                <path fill-rule="evenodd" clip-rule="evenodd"
                                    d="M5.5 3.33301C4.11929 3.33301 3 4.4523 3 5.83301C3 7.21372 4.11929 8.33301 5.5 8.33301C6.88071 8.33301 8 7.21372 8 5.83301C8 4.4523 6.88071 3.33301 5.5 3.33301ZM4 5.83301C4 5.00458 4.67157 4.33301 5.5 4.33301C6.32843 4.33301 7 5.00458 7 5.83301C7 6.66144 6.32843 7.33301 5.5 7.33301C4.67157 7.33301 4 6.66144 4 5.83301Z"
                                    fill="#DBA102" />
                                <path fill-rule="evenodd" clip-rule="evenodd"
                                    d="M5.5 0.333009C2.51483 0.333008 -4.39279e-07 2.84539 -9.7178e-07 5.89094C-1.51732e-06 9.01108 2.57168 11.096 4.71805 12.4512L4.72667 12.4567L4.73551 12.4618C4.96811 12.5957 5.23159 12.6663 5.5 12.6663C5.76841 12.6663 6.03188 12.5957 6.26449 12.4618L6.27219 12.4573L6.27974 12.4526C8.4345 11.1077 11 9.00054 11 5.89094C11 2.84539 8.48517 0.333009 5.5 0.333009ZM0.999999 5.89094C0.999999 3.39133 3.07344 1.33301 5.5 1.33301C7.92656 1.33301 10 3.39133 10 5.89094C10 8.4114 7.9082 10.256 5.759 11.5988C5.67936 11.6432 5.59028 11.6663 5.5 11.6663C5.41008 11.6663 5.32136 11.6434 5.24196 11.5994C3.09282 10.2408 0.999999 8.41983 0.999999 5.89094Z"
                                    fill="#DBA102" />
                                <path fill-rule="evenodd" clip-rule="evenodd"
                                    d="M1.5 12.333C1.77355 12.333 1.99579 12.5527 1.99994 12.8252C2.00468 12.8378 2.02796 12.8837 2.12382 12.9593C2.26361 13.0695 2.49687 13.1905 2.82968 13.3015C3.49008 13.5216 4.43421 13.6663 5.5 13.6663C6.56578 13.6663 7.50991 13.5216 8.17031 13.3015C8.50312 13.1905 8.73638 13.0695 8.87617 12.9593C8.97204 12.8837 8.99532 12.8378 9.00006 12.8252C9.00421 12.5527 9.22645 12.333 9.5 12.333C9.77614 12.333 10 12.5569 10 12.833C10 13.236 9.75454 13.5403 9.49515 13.7447C9.23011 13.9536 8.87758 14.1198 8.48654 14.2502C7.69922 14.5126 6.64335 14.6663 5.5 14.6663C4.35664 14.6663 3.30078 14.5126 2.51346 14.2502C2.12241 14.1198 1.76988 13.9536 1.50485 13.7447C1.24545 13.5403 0.999998 13.236 0.999998 12.833C0.999998 12.5569 1.22386 12.333 1.5 12.333ZM9.00113 12.8218C9.00113 12.8217 9.00113 12.8218 9.00113 12.8218V12.8218Z"
                                    fill="#DBA102" />
                            </svg>