<svg width="24" height="24" viewBox="0 0 24 24" fill="none" xmlns="http://www.w3.org/2000/svg">
<path fill-rule="evenodd" clip-rule="evenodd" d="M16.7197 16.7197C17.0126 16.4268 17.4874 16.4268 17.7803 16.7197L22.2803 21.2197C22.5732 21.5126 22.5732 21.9874 22.2803 22.2803C21.9874 22.5732 21.5126 22.5732 21.2197 22.2803L16.7197 17.7803C16.4268 17.4874 16.4268 17.0126 16.7197 16.7197Z" fill="#DBA102"/>
<path fill-rule="evenodd" clip-rule="evenodd" d="M1 10.75C1 5.36522 5.36522 1 10.75 1C16.1348 1 20.5 5.36522 20.5 10.75C20.5 16.1348 16.1348 20.5 10.75 20.5C5.36522 20.5 1 16.1348 1 10.75ZM10.75 2.5C6.19365 2.5 2.5 6.19365 2.5 10.75C2.5 15.3063 6.19365 19 10.75 19C15.3063 19 19 15.3063 19 10.75C19 6.19365 15.3063 2.5 10.75 2.5Z" fill="#1F2A37"/>
</svg>
