<svg width="620" height="40" viewBox="0 0 620 40" fill="none" xmlns="http://www.w3.org/2000/svg">
    <!-- Background rectangle -->
    <rect width="620" height="40" fill="white"/>
    
    <!-- Left half circle -->
    <path
        d="M40 20C40 22.6264 39.4827 25.2272 38.4776 27.6537C37.4725 30.0802 35.9993 32.285 34.1421 34.1421C32.285 35.9993 30.0802 37.4725 27.6537 38.4776C25.2272 39.4827 22.6264 40 20 40"
        stroke="#D9D9D9" stroke-width="2" />
    <path
        d="M20 0C22.6264 0 25.2272 0.517316 27.6537 1.52241C30.0802 2.52751 32.285 4.00069 34.1421 5.85786C35.9993 7.71504 37.4725 9.91981 38.4776 12.3463C39.4827 14.7728 40 17.3736 40 20"
        stroke="#D9D9D9" stroke-width="2" />

    <!-- Dashed line -->
    <line x1="40" y1="20" x2="580" y2="20" stroke="#D9D9D9" stroke-width="2" stroke-dasharray="5 5" />

    <!-- Right half circle -->
    <path
        d="M580 20C580 22.6264 580.517 25.2272 581.522 27.6537C582.527 30.0802 584.001 32.285 585.858 34.1421C587.715 35.9993 589.92 37.4725 592.346 38.4776C594.773 39.4827 597.374 40 600 40"
        stroke="#D9D9D9" stroke-width="2" />
    <path
        d="M600 0C597.374 0 594.773 0.517316 592.346 1.52241C589.92 2.52751 587.715 4.00069 585.858 5.85786C584.001 7.71504 582.527 9.91981 581.522 12.3463C580.517 14.7728 580 17.3736 580 20"
        stroke="#D9D9D9" stroke-width="2" />
</svg>
