<svg width="20" height="20" viewBox="0 0 20 20" fill="none" xmlns="http://www.w3.org/2000/svg">
<path fill-rule="evenodd" clip-rule="evenodd" d="M9.99993 3.54199C8.53262 3.54199 7.1283 3.68698 5.83023 3.95158C4.12015 4.30017 3.52476 4.44416 2.92378 5.21685C2.31959 5.99367 2.2916 6.86586 2.2916 9.19737V10.8033C2.2916 13.1348 2.31959 14.007 2.92378 14.7838C3.52476 15.5565 4.12015 15.7005 5.83023 16.0491C7.1283 16.3137 8.53262 16.4587 9.99993 16.4587C11.4672 16.4587 12.8716 16.3137 14.1696 16.0491C15.8797 15.7005 16.4751 15.5565 17.0761 14.7838C17.6803 14.007 17.7083 13.1348 17.7083 10.8033L17.7083 9.19737C17.7083 6.86586 17.6803 5.99367 17.0761 5.21685C16.4751 4.44416 15.8797 4.30017 14.1696 3.95158C12.8716 3.68698 11.4672 3.54199 9.99993 3.54199ZM5.58056 2.72677C6.96304 2.44496 8.45109 2.29199 9.99993 2.29199C11.5488 2.29199 13.0368 2.44496 14.4193 2.72677C14.4549 2.73403 14.4903 2.74123 14.5254 2.74837C16.1042 3.06974 17.1562 3.28386 18.0628 4.44943C18.9596 5.60248 18.9591 6.93966 18.9583 9.01065C18.9583 9.07224 18.9583 9.13447 18.9583 9.19737L18.9583 10.8033C18.9583 10.8662 18.9583 10.9284 18.9583 10.99C18.9591 13.061 18.9596 14.3982 18.0628 15.5512C17.1562 16.7168 16.1042 16.9309 14.5254 17.2523C14.4903 17.2594 14.4549 17.2666 14.4193 17.2739C13.0368 17.5557 11.5488 17.7087 9.99993 17.7087C8.45109 17.7087 6.96304 17.5557 5.58056 17.2739C5.54494 17.2666 5.50958 17.2594 5.47449 17.2523C3.89563 16.9309 2.84363 16.7168 1.93709 15.5512C1.04027 14.3982 1.04077 13.061 1.04155 10.99C1.04157 10.9284 1.0416 10.8662 1.0416 10.8033L1.0416 9.19737C1.0416 9.13447 1.04157 9.07224 1.04155 9.01066C1.04077 6.93966 1.04027 5.60248 1.93709 4.44942C2.84363 3.28386 3.89563 3.06974 5.47449 2.74837C5.50958 2.74123 5.54494 2.73403 5.58056 2.72677Z" fill="white"/>
<path fill-rule="evenodd" clip-rule="evenodd" d="M11.4721 7.58087L11.5402 7.61843C12.1689 7.96482 12.6881 8.25092 13.0617 8.51602C13.4361 8.78163 13.7913 9.11077 13.9088 9.59077C13.9748 9.86023 13.9748 10.1402 13.9088 10.4096C13.7913 10.8896 13.4361 11.2188 13.0617 11.4844C12.6881 11.7495 12.1689 12.0356 11.5402 12.3819L11.4721 12.4195C10.785 12.7981 10.2231 13.1078 9.76045 13.2994C9.29082 13.4938 8.8092 13.6178 8.31888 13.4893C8.04033 13.4163 7.77884 13.2867 7.55539 13.1061C7.14514 12.7744 7.00012 12.2995 6.93649 11.8209C6.87495 11.358 6.87497 10.7592 6.875 10.0447C6.875 10.0299 6.875 10.0151 6.875 10.0002C6.875 9.9853 6.875 9.97045 6.875 9.95566C6.87497 9.24118 6.87495 8.64238 6.93649 8.17947C7.00012 7.70089 7.14514 7.22598 7.55539 6.89431C7.77884 6.71366 8.04033 6.58406 8.31888 6.51106C8.8092 6.38255 9.29082 6.50654 9.76045 6.70102C10.2231 6.8926 10.785 7.20225 11.4721 7.58087ZM9.2822 7.85591C8.89124 7.69401 8.72517 7.69679 8.63579 7.72022C8.52167 7.75013 8.4215 7.8015 8.34126 7.86637C8.30319 7.89715 8.22405 7.9797 8.17559 8.3442C8.12633 8.71478 8.125 9.22941 8.125 10.0002C8.125 10.771 8.12633 11.2856 8.17559 11.6562C8.22405 12.0207 8.30319 12.1032 8.34126 12.134C8.4215 12.1989 8.52167 12.2503 8.63579 12.2802C8.72517 12.3036 8.89124 12.3064 9.2822 12.1445C9.67266 11.9828 10.1735 11.7079 10.9024 11.3062C11.5743 10.936 12.0299 10.6838 12.3384 10.4649C12.653 10.2417 12.6886 10.1371 12.6947 10.1122C12.7129 10.0381 12.7129 9.96225 12.6947 9.88815C12.6886 9.86329 12.653 9.75869 12.3384 9.53548C12.0299 9.31661 11.5743 9.06442 10.9024 8.69419C10.1735 8.29251 9.67266 8.01761 9.2822 7.85591Z" fill="#DBA102"/>
</svg>
