<svg width="18" height="18" viewBox="0 0 18 18" fill="none" xmlns="http://www.w3.org/2000/svg">
<path fill-rule="evenodd" clip-rule="evenodd" d="M8.43986 7.27542C8.44874 6.07727 9.40746 5.06689 10.6356 5.06689L13.1592 5.06689C13.5044 5.06689 13.7842 5.34672 13.7842 5.69189C13.7842 6.03707 13.5044 6.31689 13.1592 6.31689L10.6356 6.31689C10.1239 6.31689 9.69384 6.74314 9.68982 7.28468L9.66924 10.0629H11.4886C11.8338 10.0629 12.1136 10.3427 12.1136 10.6879C12.1136 11.0331 11.8338 11.3129 11.4886 11.3129H9.65998L9.61874 16.8801C9.61618 17.2252 9.33429 17.503 8.98913 17.5004C8.64396 17.4979 8.36622 17.216 8.36877 16.8708L8.40995 11.3129H7.25537C6.91019 11.3129 6.63037 11.0331 6.63037 10.6879C6.63037 10.3427 6.91019 10.0629 7.25537 10.0629H8.41921L8.43986 7.27542Z" fill="#DBA102"/>
<path fill-rule="evenodd" clip-rule="evenodd" d="M8.95056 0.458008L9.04586 0.458008C10.8714 0.457997 12.3053 0.457988 13.4249 0.608503C14.5721 0.762742 15.4823 1.08527 16.1974 1.80044C16.9126 2.5156 17.2351 3.42581 17.3894 4.57303C17.5399 5.69254 17.5399 7.12644 17.5399 8.95203V9.04731C17.5399 10.8729 17.5399 12.3068 17.3894 13.4263C17.2351 14.5735 16.9126 15.4837 16.1974 16.1989C15.4823 16.9141 14.5721 17.2366 13.4249 17.3908C12.3053 17.5414 10.8714 17.5414 9.04585 17.5413H8.95057C7.12498 17.5414 5.69108 17.5414 4.57156 17.3908C3.42435 17.2366 2.51414 16.9141 1.79897 16.1989C1.08381 15.4837 0.761277 14.5735 0.607038 13.4263C0.456523 12.3068 0.456532 10.8729 0.456543 9.04732L0.456543 8.95203C0.456532 7.12644 0.456523 5.69254 0.607038 4.57303C0.761277 3.42581 1.08381 2.5156 1.79897 1.80044C2.51414 1.08527 3.42435 0.762742 4.57156 0.608503C5.69108 0.457988 7.12498 0.457997 8.95056 0.458008ZM4.73812 1.84736C3.72952 1.98296 3.12706 2.24011 2.68285 2.68432C2.23865 3.12852 1.98149 3.73098 1.84589 4.73959C1.70787 5.76617 1.70654 7.11603 1.70654 8.99967C1.70654 10.8833 1.70787 12.2332 1.84589 13.2598C1.98149 14.2684 2.23865 14.8708 2.68285 15.315C3.12706 15.7592 3.72952 16.0164 4.73812 16.152C5.76471 16.29 7.11457 16.2913 8.99821 16.2913C10.8819 16.2913 12.2317 16.29 13.2583 16.152C14.2669 16.0164 14.8694 15.7592 15.3136 15.315C15.7578 14.8708 16.0149 14.2684 16.1505 13.2598C16.2885 12.2332 16.2899 10.8833 16.2899 8.99967C16.2899 7.11603 16.2885 5.76617 16.1505 4.73959C16.0149 3.73098 15.7578 3.12852 15.3136 2.68432C14.8694 2.24011 14.2669 1.98296 13.2583 1.84736C12.2317 1.70934 10.8819 1.70801 8.99821 1.70801C7.11457 1.70801 5.76471 1.70934 4.73812 1.84736Z" fill="white"/>
</svg>
