<svg width="20" height="20" viewBox="0 0 20 20" fill="none" xmlns="http://www.w3.org/2000/svg">
<path fill-rule="evenodd" clip-rule="evenodd" d="M3.54175 2.2915C2.85139 2.2915 2.29175 2.85115 2.29175 3.5415C2.29175 4.23186 2.85139 4.7915 3.54175 4.7915C4.2321 4.7915 4.79175 4.23186 4.79175 3.5415C4.79175 2.85115 4.2321 2.2915 3.54175 2.2915ZM1.04175 3.5415C1.04175 2.16079 2.16104 1.0415 3.54175 1.0415C4.92246 1.0415 6.04175 2.16079 6.04175 3.5415C6.04175 4.92222 4.92246 6.0415 3.54175 6.0415C2.16104 6.0415 1.04175 4.92222 1.04175 3.5415Z" fill="#DBA102"/>
<path fill-rule="evenodd" clip-rule="evenodd" d="M9.54613 7.29151C9.78745 7.29149 10.7593 7.29147 10.9438 7.30837C11.1433 7.32665 11.3606 7.36866 11.5699 7.49111C11.7859 7.61749 11.9658 7.79735 12.0922 8.01338L12.1022 8.03079C12.7603 7.56609 13.5547 7.29171 14.414 7.29171C16.6601 7.29171 18.9585 9.20356 18.9585 11.6667L18.9574 16.2878C18.9573 16.6484 18.9573 16.979 18.921 17.248C18.8812 17.5441 18.7874 17.8572 18.5299 18.1146C18.2724 18.372 17.9593 18.4657 17.6632 18.5055C17.3942 18.5417 17.0636 18.5417 16.703 18.5416H16.2127C15.8521 18.5417 15.5214 18.5417 15.2524 18.5055C14.9561 18.4657 14.643 18.372 14.3855 18.1145C14.128 17.857 14.0343 17.5438 13.9945 17.2476C13.9583 16.9786 13.9583 16.6479 13.9584 16.2872L13.9584 12.4999C13.9584 12.1187 13.6763 11.8749 13.4066 11.8749C12.9756 11.8749 12.7439 12.0402 12.5847 12.3046C12.3975 12.6155 12.2918 13.1072 12.2918 13.7499L12.2918 16.7038C12.2918 17.0645 12.2918 17.3952 12.2557 17.6642C12.2158 17.9604 12.1221 18.2735 11.8646 18.531C11.6071 18.7886 11.294 18.8823 10.9978 18.9221C10.7288 18.9583 10.3981 18.9582 10.0374 18.9582H9.54611C9.18544 18.9582 8.85475 18.9583 8.58575 18.9221C8.28951 18.8823 7.97641 18.7886 7.71889 18.531C7.46137 18.2735 7.36766 17.9604 7.32784 17.6642C7.29167 17.3952 7.29171 17.0645 7.29175 16.7038L7.29175 9.54589C7.29171 9.18521 7.29167 8.85451 7.32784 8.5855C7.36766 8.28927 7.46137 7.97617 7.71889 7.71865C7.97641 7.46113 8.28951 7.36742 8.58575 7.32759C8.85476 7.29143 9.18545 7.29146 9.54613 7.29151ZM9.58342 8.5415C9.17291 8.5415 8.9279 8.54283 8.7523 8.56644C8.69592 8.56425 8.57986 8.5983 8.56668 8.75206C8.54308 8.92766 8.54175 9.17266 8.54175 9.58317L8.54175 16.6665C8.54175 17.077 8.54308 17.322 8.56668 17.4976C8.57674 17.5992 8.69462 17.6637 8.7523 17.6832C8.9279 17.7068 9.17291 17.7082 9.58342 17.7082H10.0001C10.4106 17.7082 10.6556 17.7068 10.8312 17.6832C10.8885 17.6688 11.0059 17.6114 11.0168 17.4976C11.0404 17.322 11.0418 17.077 11.0418 16.6665L11.0418 13.7499C11.0418 13.012 11.1562 12.2537 11.5139 11.6597C11.8996 11.0193 12.5379 10.6249 13.4066 10.6249C14.4367 10.6249 15.2084 11.5005 15.2084 12.4999V16.2499C15.2084 16.6604 15.2097 16.9054 15.2333 17.0811C15.2333 17.2128 15.3129 17.2348 15.3751 17.2521C15.3915 17.2566 15.4067 17.2608 15.4189 17.2667C15.5945 17.2903 15.8395 17.2916 16.25 17.2916H16.6657C17.0761 17.2916 17.3211 17.2903 17.4966 17.2667C17.5544 17.2452 17.6725 17.1781 17.6822 17.0811C17.7059 16.9056 17.7073 16.6606 17.7074 16.2502L17.7085 11.6666C17.7084 9.98763 16.0674 8.5417 14.414 8.5417C13.5161 8.5417 12.7037 8.98073 12.1642 9.68987C12.0018 9.90335 11.7213 9.9894 11.4671 9.90372C11.213 9.81803 11.0418 9.57971 11.0418 9.31148C11.0418 9.03734 11.0412 8.87399 11.0301 8.7535C11.0233 8.62745 10.8937 8.56742 10.8298 8.55315C10.7093 8.54212 10.5459 8.5415 10.2718 8.5415H9.58342Z" fill="white"/>
<path fill-rule="evenodd" clip-rule="evenodd" d="M3.29613 7.29151C2.93545 7.29146 2.60476 7.29143 2.33575 7.32759C2.03951 7.36742 1.72641 7.46113 1.46889 7.71865C1.21137 7.97617 1.11766 8.28927 1.07784 8.5855C1.04167 8.85451 1.04171 9.18521 1.04175 9.54589L1.04175 16.7038C1.04171 17.0645 1.04167 17.3952 1.07784 17.6642C1.11766 17.9604 1.21137 18.2735 1.46889 18.531C1.72641 18.7886 2.03951 18.8823 2.33575 18.9221C2.60476 18.9583 2.93545 18.9582 3.29612 18.9582H3.78737C4.14805 18.9582 4.47875 18.9583 4.74776 18.9221C5.04399 18.8823 5.3571 18.7886 5.61462 18.531C5.87214 18.2735 5.96584 17.9604 6.00567 17.6642C6.04184 17.3952 6.0418 17.0645 6.04176 16.7038L6.04176 9.54589C6.0418 9.18521 6.04184 8.85451 6.00567 8.5855C5.96584 8.28927 5.87214 7.97616 5.61462 7.71865C5.3571 7.46113 5.04399 7.36742 4.74776 7.32759C4.47875 7.29143 4.14806 7.29146 3.78738 7.29151H3.29613ZM2.35481 8.60139L2.35279 8.60254L2.35164 8.60457C2.3508 8.60618 2.34945 8.60894 2.34772 8.61315C2.34025 8.6313 2.32751 8.6716 2.31669 8.75206C2.29308 8.92767 2.29175 9.17267 2.29175 9.58318L2.29175 16.6665C2.29175 17.077 2.29308 17.322 2.31669 17.4976C2.32751 17.5781 2.34025 17.6184 2.34772 17.6365C2.34945 17.6407 2.3508 17.6435 2.35164 17.6451L2.35278 17.6471L2.35481 17.6483C2.35642 17.6491 2.35919 17.6505 2.36339 17.6522C2.38154 17.6597 2.42184 17.6724 2.50231 17.6832C2.67791 17.7068 2.92291 17.7082 3.33342 17.7082H3.75009C4.16059 17.7082 4.4056 17.7068 4.5812 17.6832C4.66167 17.6724 4.70197 17.6597 4.72012 17.6522C4.72277 17.6511 4.72484 17.6502 4.72642 17.6494C4.72735 17.649 4.7281 17.6486 4.72869 17.6483L4.73072 17.6471L4.73187 17.6451C4.73271 17.6435 4.73406 17.6407 4.73579 17.6365C4.74326 17.6184 4.756 17.5781 4.76682 17.4976C4.79043 17.322 4.79175 17.077 4.79175 16.6665L4.79175 9.58318C4.79175 9.17267 4.79043 8.92767 4.76682 8.75206C4.756 8.6716 4.74326 8.6313 4.73579 8.61315C4.73406 8.60894 4.73271 8.60618 4.73187 8.60457L4.73072 8.60254L4.72869 8.60139C4.72708 8.60055 4.72432 8.59921 4.72012 8.59748C4.70197 8.59001 4.66167 8.57726 4.5812 8.56645C4.4056 8.54284 4.16059 8.54151 3.75009 8.54151H3.33342C2.92291 8.54151 2.67791 8.54284 2.50231 8.56645C2.42184 8.57726 2.38154 8.59001 2.36339 8.59748C2.35919 8.59921 2.35642 8.60055 2.35481 8.60139Z" fill="white"/>
</svg>
