<svg width="24" height="24" viewBox="0 0 24 24" fill="none" xmlns="http://www.w3.org/2000/svg">
            <path fill-rule="evenodd" clip-rule="evenodd" d="M17.0388 16.126C13.9576 14.2913 10.0425 14.2913 6.96134 16.126C6.79344 16.226 6.60946 16.3303 6.41674 16.4397C5.70413 16.844 4.87211 17.316 4.29202 17.8838C3.93189 18.2363 3.77838 18.5271 3.75382 18.7517C3.73433 18.9301 3.77942 19.2242 4.23005 19.6536C5.2659 20.6404 6.31848 21.25 7.59092 21.25H16.4092C17.6816 21.25 18.7342 20.6404 19.7701 19.6535C20.2207 19.2242 20.2658 18.9301 20.2463 18.7517C20.2217 18.5271 20.0682 18.2363 19.7081 17.8838C19.128 17.316 18.296 16.844 17.5834 16.4397C17.3907 16.3303 17.2067 16.226 17.0388 16.126ZM17.8062 14.8372L17.4225 15.4816L17.8062 14.8372C17.9225 14.9064 18.0662 14.9875 18.2288 15.0793C18.9417 15.4814 20.0192 16.0893 20.7573 16.8118C21.219 17.2637 21.6577 17.8592 21.7374 18.5888C21.8222 19.3646 21.4837 20.0927 20.8047 20.7396C19.6333 21.8556 18.2275 22.75 16.4092 22.75H7.59092C5.77261 22.75 4.36683 21.8556 3.19538 20.7396C2.51636 20.0927 2.1779 19.3646 2.26271 18.5888C2.34245 17.8592 2.78111 17.2637 3.24277 16.8118C3.98094 16.0893 5.05845 15.4814 5.77126 15.0793C5.93393 14.9875 6.0776 14.9064 6.19392 14.8372C9.74797 12.7209 14.2521 12.7209 17.8062 14.8372Z" fill="#1F2A37"/>
            <path fill-rule="evenodd" clip-rule="evenodd" d="M12 2.75C9.92893 2.75 8.25 4.42893 8.25 6.5C8.25 8.57107 9.92893 10.25 12 10.25C14.0711 10.25 15.75 8.57107 15.75 6.5C15.75 4.42893 14.0711 2.75 12 2.75ZM6.75 6.5C6.75 3.6005 9.1005 1.25 12 1.25C14.8995 1.25 17.25 3.6005 17.25 6.5C17.25 9.39949 14.8995 11.75 12 11.75C9.1005 11.75 6.75 9.39949 6.75 6.5Z" fill="#DBA102"/>
            </svg>