<svg  width="24" height="24" viewBox="0 0 24 24" fill="none" xmlns="http://www.w3.org/2000/svg"><path _ngcontent-sfe-c17="" fill-rule="evenodd" clip-rule="evenodd" d="M11.3226 3.23313e-06L12.6774 3.23313e-06C13.0393 -4.05472e-05 13.3794 -8.15994e-05 13.6645 0.0317692C13.9822 0.0672602 14.3162 0.14934 14.6279 0.369198C14.9394 0.588958 15.1243 0.872806 15.259 1.15601C15.3799 1.41038 15.4873 1.72596 15.6018 2.06211L15.614 2.09796L15.9891 3.19218C16.0973 3.45872 16.2867 3.68589 16.5312 3.843L16.8768 4.03776C17.166 4.17833 17.4954 4.21839 17.8109 4.15146L19.1833 3.77388L19.223 3.76289C19.5978 3.65893 19.9484 3.56172 20.2503 3.51491C20.586 3.46285 20.9532 3.4562 21.333 3.60708C21.7127 3.75789 21.971 4.01296 22.1744 4.27896C22.3574 4.51827 22.5394 4.82693 22.7342 5.15725L23.34 6.18411C23.5225 6.49338 23.6938 6.7836 23.8087 7.04274C23.9366 7.3313 24.0309 7.65708 23.9905 8.03278C23.9501 8.40853 23.7885 8.70803 23.6019 8.96429C23.4344 9.1944 23.2051 9.44342 22.9608 9.70872L22.9351 9.73654L22.9336 9.73818L21.7781 11.0001C21.6336 11.1912 21.4826 11.6067 21.4826 11.9998C21.4826 12.3934 21.6336 12.8087 21.778 12.9998L22.9351 14.2634L22.9608 14.2912C23.2051 14.5565 23.4344 14.8055 23.6019 15.0356C23.7885 15.2919 23.9501 15.5914 23.9905 15.9671C24.0309 16.3428 23.9366 16.6686 23.8086 16.9572C23.6938 17.2163 23.5225 17.5066 23.34 17.8159L22.7343 18.8426C22.5394 19.1729 22.3574 19.4816 22.1744 19.7209C21.971 19.9869 21.7127 20.242 21.333 20.3928C20.9532 20.5437 20.586 20.537 20.2502 20.485C19.9484 20.4382 19.5978 20.3409 19.2229 20.237L19.1833 20.226L17.8109 19.8484C17.4954 19.7815 17.1659 19.8215 16.8766 19.9622L16.5311 20.1569C16.2867 20.314 16.0973 20.5412 15.9891 20.8077L15.6145 21.9005L15.6018 21.9379C15.4873 22.274 15.3799 22.5896 15.259 22.844C15.1243 23.1272 14.9394 23.411 14.6279 23.6308C14.3162 23.8507 13.9821 23.9327 13.6645 23.9682C13.3794 24.0001 13.0393 24 12.6774 24H11.3226C10.9607 24 10.6206 24.0001 10.3355 23.9682C10.0178 23.9327 9.68381 23.8507 9.37212 23.6308C9.06058 23.411 8.87566 23.1272 8.74104 22.844C8.62012 22.5896 8.51268 22.274 8.39823 21.9379L8.38551 21.9005L8.01089 20.8077C7.90265 20.5412 7.7133 20.314 7.46888 20.1569L7.12338 19.9622C6.83407 19.8215 6.5046 19.7815 6.18908 19.8484L4.8167 20.226L4.77708 20.237C4.4022 20.3409 4.05165 20.4382 3.74978 20.485C3.41405 20.537 3.04678 20.5437 2.667 20.3928C2.28734 20.242 2.02899 19.9869 1.8256 19.7209C1.6426 19.4816 1.46056 19.1729 1.26574 18.8426L1.24436 18.8064L0.660019 17.8158C0.477509 17.5066 0.306243 17.2163 0.191353 16.9572C0.0634254 16.6686 -0.0309491 16.3428 0.00946174 15.9671C0.0498763 15.5914 0.211525 15.2919 0.398112 15.0356C0.565654 14.8055 0.794953 14.5565 1.03925 14.2912L1.06488 14.2634L1.06638 14.2617L2.22197 12.9998C2.36642 12.8087 2.51739 12.3934 2.51739 11.9998C2.51739 11.6067 2.36639 11.1912 2.22195 11.0001L1.06638 9.73818L1.06487 9.73654L1.03925 9.70872C0.79495 9.44341 0.56565 9.1944 0.398108 8.96429C0.211521 8.70803 0.0498739 8.40853 0.00945956 8.03279C-0.0309484 7.65708 0.0634219 7.3313 0.19135 7.04274C0.30624 6.78358 0.477507 6.49335 0.660019 6.18406C0.666757 6.17265 0.673509 6.1612 0.680275 6.14973L1.24437 5.19353C1.25152 5.18142 1.25864 5.16934 1.26575 5.15729C1.46057 4.82696 1.64262 4.51828 1.82562 4.27896C2.02901 4.01296 2.28734 3.75789 2.66699 3.60708C3.04676 3.4562 3.41403 3.46285 3.74975 3.51491C4.05161 3.56172 4.40216 3.65893 4.77703 3.76289C4.79044 3.7666 4.80387 3.77033 4.81734 3.77406L6.18913 4.15146C6.50458 4.21839 6.83398 4.17833 7.12324 4.03776L7.46882 3.843C7.71328 3.6859 7.90268 3.45873 8.01093 3.19218L8.38551 2.09949C8.38968 2.08726 8.39408 2.07433 8.39823 2.06215C8.51268 1.72598 8.62012 1.41039 8.74104 1.15601C8.87566 0.872806 9.06058 0.588958 9.37213 0.369198C9.68381 0.14934 10.0178 0.0672602 10.3355 0.0317692C10.6206 -8.15994e-05 10.9607 -4.05472e-05 11.3226 3.23313e-06ZM10.3758 1.72665L10.3748 1.72744C10.3748 1.72744 10.371 1.73127 10.3652 1.7388C10.3528 1.75508 10.3296 1.79017 10.2959 1.86114C10.2211 2.01842 10.1438 2.2414 10.0121 2.62806L9.62408 3.76009L9.61745 3.77696C9.3773 4.38852 8.94331 4.90912 8.37869 5.26234L8.36197 5.2728L7.94168 5.50966L7.92312 5.51898C7.26455 5.84948 6.50767 5.94169 5.78623 5.77919L5.76622 5.77468L4.35029 5.38514C3.91973 5.2658 3.66924 5.19782 3.48094 5.16861C3.39578 5.15541 3.3502 5.15496 3.32852 5.15625C3.31856 5.15684 3.31352 5.15791 3.31352 5.15791L3.31212 5.15847C3.31212 5.15847 3.30762 5.16123 3.29998 5.16767C3.28335 5.18168 3.25086 5.21323 3.1991 5.28092C3.08473 5.43049 2.95342 5.65031 2.72971 6.02951L2.16561 6.98571C1.95576 7.34142 1.83559 7.54768 1.76448 7.70809C1.73238 7.78049 1.72087 7.82113 1.71665 7.84127C1.71469 7.85059 1.71432 7.8562 1.71432 7.8562L1.71436 7.85784L1.71467 7.85943C1.71467 7.85943 1.71621 7.8648 1.7201 7.8735C1.72849 7.89228 1.74836 7.92964 1.79513 7.99388C1.89878 8.13623 2.06015 8.31343 2.3411 8.6186L2.3426 8.62024L3.53842 9.92608L3.55468 9.94619C3.98258 10.4753 4.23167 11.2884 4.23167 11.9998C4.23167 12.7115 3.98268 13.5245 3.55471 14.0537L3.53845 14.0738L2.34261 15.3797L2.3411 15.3813C2.06016 15.6865 1.89878 15.8637 1.79513 16.006C1.74836 16.0703 1.72849 16.1076 1.7201 16.1264C1.71621 16.1351 1.71467 16.1405 1.71467 16.1405L1.71436 16.1421L1.71433 16.1437C1.71433 16.1437 1.71469 16.1493 1.71665 16.1586C1.72088 16.1788 1.73238 16.2194 1.76448 16.2918C1.83559 16.4522 1.95577 16.6585 2.16561 17.0142L2.72969 17.9704C2.95339 18.3496 3.08471 18.5694 3.19909 18.719C3.25085 18.7867 3.28335 18.8182 3.29998 18.8322C3.30762 18.8387 3.31212 18.8414 3.31212 18.8414L3.31351 18.842C3.31351 18.842 3.31855 18.8431 3.32851 18.8436C3.3502 18.8449 3.39577 18.8445 3.48094 18.8313C3.66924 18.8021 3.91973 18.7341 4.35029 18.6147L5.76615 18.2252L5.78616 18.2207C6.50774 18.0581 7.26476 18.1504 7.92341 18.481L7.94197 18.4903L8.3622 18.7272L8.37892 18.7377C8.94342 19.0909 9.3773 19.6115 9.61742 20.2229L9.62404 20.2398L10.0121 21.3719C10.1438 21.7586 10.2211 21.9816 10.2959 22.1389C10.3296 22.2098 10.3528 22.2449 10.3652 22.2612C10.371 22.2687 10.3748 22.2726 10.3748 22.2726L10.3758 22.2734C10.3758 22.2734 10.3815 22.2762 10.3905 22.2791C10.41 22.2854 10.451 22.2958 10.5303 22.3047C10.7061 22.3243 10.9464 22.3256 11.363 22.3256H12.637C13.0536 22.3256 13.2939 22.3243 13.4697 22.3047C13.549 22.2958 13.59 22.2854 13.6095 22.2791C13.6185 22.2762 13.6233 22.2739 13.6233 22.2739L13.6252 22.2726C13.6252 22.2726 13.629 22.2687 13.6348 22.2612C13.6472 22.2449 13.6704 22.2098 13.7041 22.1389C13.7789 21.9816 13.8562 21.7586 13.9879 21.3719L13.9884 21.3704L14.376 20.2398L14.3826 20.2229C14.6227 19.6115 15.0566 19.0909 15.6211 18.7377L15.6378 18.7272L16.058 18.4903L16.0766 18.481C16.7352 18.1504 17.4923 18.0581 18.2138 18.2207L18.2338 18.2252L19.6497 18.6147C20.0803 18.7341 20.3308 18.8021 20.5191 18.8313C20.6042 18.8445 20.6498 18.8449 20.6715 18.8436C20.6815 18.8431 20.6865 18.842 20.6865 18.842L20.6879 18.8414C20.6879 18.8414 20.6924 18.8387 20.7 18.8322C20.7167 18.8182 20.7492 18.7867 20.8009 18.719C20.9153 18.5694 21.0466 18.3496 21.2703 17.9704L21.8344 17.0142C22.0442 16.6585 22.1644 16.4522 22.2355 16.2918C22.2676 16.2194 22.2791 16.1788 22.2834 16.1586C22.2853 16.1493 22.2857 16.1437 22.2857 16.1437L22.2856 16.1421L22.2853 16.1405C22.2853 16.1405 22.2838 16.1351 22.2799 16.1264C22.2715 16.1076 22.2516 16.0703 22.2049 16.006C22.1012 15.8637 21.9398 15.6865 21.6589 15.3813L20.4615 14.0738L20.4453 14.0537C20.0173 13.5245 19.7683 12.7115 19.7683 11.9998C19.7683 11.2884 20.0174 10.4753 20.4453 9.94619L20.4616 9.92608L21.6574 8.62024L21.6589 8.6186C21.9398 8.31343 22.1012 8.13623 22.2049 7.99388C22.2516 7.92964 22.2715 7.89228 22.2799 7.8735C22.2838 7.8648 22.2853 7.85943 22.2853 7.85943L22.2856 7.85785L22.2857 7.8562C22.2857 7.8562 22.2853 7.85059 22.2834 7.84127C22.2791 7.82113 22.2676 7.78049 22.2355 7.70809C22.1644 7.54768 22.0442 7.34142 21.8344 6.98571L21.2703 6.02951C21.0466 5.65031 20.9153 5.43049 20.8009 5.28092C20.7491 5.21323 20.7166 5.18168 20.7 5.16767C20.6924 5.16123 20.6879 5.15847 20.6879 5.15847L20.6865 5.15791C20.6865 5.15791 20.6814 5.15684 20.6715 5.15625C20.6498 5.15496 20.6042 5.15541 20.5191 5.16861C20.3308 5.19782 20.0803 5.2658 19.6497 5.38514L18.2338 5.77468L18.2138 5.77919C17.4923 5.94169 16.7355 5.84948 16.0769 5.51898L16.0583 5.50966L15.638 5.2728L15.6213 5.26234C15.0567 4.90912 14.6227 4.38852 14.3825 3.77696L14.3759 3.76009L13.9879 2.62806C13.8562 2.2414 13.7789 2.01842 13.7041 1.86114C13.6704 1.79017 13.6472 1.75508 13.6348 1.7388C13.629 1.73127 13.6252 1.72744 13.6252 1.72744L13.6242 1.72665C13.6242 1.72665 13.6185 1.72378 13.6095 1.72087C13.59 1.71458 13.549 1.7042 13.4697 1.69534C13.2939 1.67569 13.0536 1.67442 12.637 1.67442L11.363 1.67442C10.9464 1.67442 10.7061 1.67569 10.5303 1.69534C10.451 1.7042 10.41 1.71458 10.3905 1.72087C10.3815 1.72378 10.3758 1.72665 10.3758 1.72665Z" fill="#1F2A37"></path><path _ngcontent-sfe-c17="" fill-rule="evenodd" clip-rule="evenodd" d="M11.9509 8.92149C10.2151 8.92149 8.80803 10.2959 8.80803 11.9913C8.80803 13.6866 10.2151 15.061 11.9509 15.061C13.6866 15.061 15.0937 13.6866 15.0937 11.9913C15.0937 10.2959 13.6866 8.92149 11.9509 8.92149ZM7.09375 11.9913C7.09375 9.37111 9.26836 7.24707 11.9509 7.24707C14.6334 7.24707 16.808 9.37111 16.808 11.9913C16.808 14.6114 14.6334 16.7354 11.9509 16.7354C9.26836 16.7354 7.09375 14.6114 7.09375 11.9913Z" fill="#DBA102"></path></svg>