 <svg width="24" height="24" viewBox="0 0 24 24" fill="none" xmlns="http://www.w3.org/2000/svg">
                            <path
                                d="M3.56064 5.6857C3.69105 5.53896 3.85654 5.30857 4.00883 5.09651L4.04442 5.04693C4.11134 4.9537 4.18006 4.85797 4.25002 4.76188V9C4.25002 9.41421 4.58581 9.75 5.00002 9.75C5.41424 9.75 5.75002 9.41421 5.75002 9V4.76188C5.82 4.85798 5.8887 4.95369 5.95563 5.04693L5.99122 5.09651C6.14351 5.30857 6.309 5.53896 6.43941 5.6857C6.71456 5.99532 7.18861 6.02327 7.49823 5.74812C7.80785 5.47297 7.83579 4.99892 7.56064 4.6893C7.49444 4.6148 7.38165 4.46113 7.2096 4.22155L7.17183 4.16893C7.01995 3.95729 6.84053 3.70729 6.65553 3.46849C6.45781 3.21329 6.23276 2.94317 6.00477 2.73079C5.89071 2.62454 5.75735 2.51509 5.60953 2.42857C5.469 2.34632 5.25686 2.25 5.00002 2.25C4.74319 2.25 4.53105 2.34632 4.39052 2.42857C4.2427 2.51509 4.10934 2.62454 3.99528 2.73079C3.76729 2.94317 3.54224 3.21329 3.34452 3.46849C3.15952 3.70729 2.9801 3.9573 2.82821 4.16895L2.79045 4.22155C2.6184 4.46113 2.50561 4.6148 2.43941 4.6893C2.16426 4.99892 2.1922 5.47297 2.50182 5.74812C2.81144 6.02327 3.28549 5.99532 3.56064 5.6857Z"
                                fill="#161616" />
                            <path
                                d="M11 5.25C10.5858 5.25 10.25 5.58579 10.25 6C10.25 6.41421 10.5858 6.75 11 6.75H21C21.4142 6.75 21.75 6.41421 21.75 6C21.75 5.58579 21.4142 5.25 21 5.25H11Z"
                                fill="#161616" />
                            <path
                                d="M11 9.25001C10.5858 9.25 10.25 9.58579 10.25 10C10.25 10.4142 10.5858 10.75 11 10.75L18 10.7501C18.4142 10.7501 18.75 10.4143 18.75 10.0001C18.75 9.58585 18.4142 9.25006 18 9.25005L11 9.25001Z"
                                fill="#161616" />
                            <path
                                d="M11 13.25C10.5858 13.25 10.25 13.5858 10.25 14C10.25 14.4142 10.5858 14.75 11 14.75H16C16.4142 14.75 16.75 14.4142 16.75 14C16.75 13.5858 16.4142 13.25 16 13.25H11Z"
                                fill="#161616" />
                            <path
                                d="M10.25 18C10.25 17.5858 10.5858 17.25 11 17.25H14C14.4142 17.25 14.75 17.5858 14.75 18C14.75 18.4142 14.4142 18.75 14 18.75H11C10.5858 18.75 10.25 18.4142 10.25 18Z"
                                fill="#161616" />
                            <path
                                d="M5.9912 18.9035C6.14349 18.6914 6.30898 18.461 6.43939 18.3143C6.71454 18.0047 7.18859 17.9767 7.49821 18.2519C7.80783 18.527 7.83578 19.0011 7.56063 19.3107C7.49442 19.3852 7.38163 19.5389 7.20958 19.7785L7.17182 19.8311C7.01993 20.0427 6.84051 20.2927 6.65551 20.5315C6.4578 20.7867 6.23274 21.0568 6.00475 21.2692C5.8907 21.3755 5.75733 21.4849 5.60951 21.5714C5.46898 21.6537 5.25684 21.75 5.00001 21.75C4.74317 21.75 4.53104 21.6537 4.3905 21.5714C4.24268 21.4849 4.10932 21.3755 3.99526 21.2692C3.76728 21.0568 3.54222 20.7867 3.34451 20.5315C3.15951 20.2927 2.98009 20.0427 2.8282 19.8311L2.79043 19.7785C2.61839 19.5389 2.5056 19.3852 2.43939 19.3107C2.16424 19.0011 2.19218 18.527 2.5018 18.2519C2.81143 17.9767 3.28548 18.0047 3.56063 18.3143C3.69103 18.461 3.85653 18.6914 4.00881 18.9035L4.0444 18.9531C4.1113 19.0463 4.18007 19.1421 4.25001 19.2381L4.25001 15C4.25001 14.5858 4.58579 14.25 5.00001 14.25C5.41422 14.25 5.75001 14.5858 5.75001 15L5.75001 19.2381C5.81987 19.1422 5.88845 19.0466 5.95527 18.9535L5.9912 18.9035Z"
                                fill="#161616" />
                        </svg>